<?xml version="1.0" encoding="ISO-8859-1" standalone="yes"?>
<!DOCTYPE svg PUBLIC "-//W3C//DTD SVG 1.1//EN"
  "http://www.w3.org/Graphics/SVG/1.1/DTD/svg11.dtd">
<svg width="27.7474cm" height="7.7493cm" viewBox="956.7422 1537.8438 3932.6953 1098.3203" version="1.1"
    xmlns="http://www.w3.org/2000/svg"
    xmlns:xlink="http://www.w3.org/1999/xlink">
<desc>
  Exported by the ArtWorks SVGExport module.
  Source document: ADFS::Stelmaria.$.NetSurfAW
</desc>
<g transform="matrix(1 0 0 -1 0 4174.0078)" stroke-miterlimit="16" fill-rule="evenodd" clip-rule="evenodd" stroke-linejoin="bevel" stroke-linecap="butt">
<g>
<defs>
<linearGradient id="_Fill0" gradientUnits="userSpaceOnUse" x1="1771.625" y1="3025.8906" x2="4854.0078" y2="2565.3047" spreadMethod="pad">
<stop offset="0" stop-color="#3f6eff"/>
<stop offset="1" stop-color="#93adff"/>
</linearGradient>
</defs>
<path d="M956.7422 1537.8438 956.7422 2636.1641 4889.4375 2636.1641 4889.4375 1537.8438 956.7422 1537.8438 Z" fill="url(#_Fill0)"/>
<path d="M1107.9766 2086.0078 C1107.9766 2277.8359 1263.4375 2433.3359 1455.2969 2433.3359 1647.1953 2433.3359 1802.6641 2277.8359 1802.6641 2086.0078 1802.6641 1894.1953 1647.1953 1738.6797 1455.3438 1738.6797 1263.4375 1738.6797 1107.9766 1894.1953 1107.9766 2086.0078 Z" stroke="#ffffff" stroke-width="75" fill="#ffffff"/>
<defs>
<radialGradient id="_Fill1" gradientUnits="userSpaceOnUse" cx="1270.75" cy="2292.1797" r="640.8281" spreadMethod="pad">
<stop offset="0" stop-color="#b8f5ff"/>
<stop offset="1" stop-color="#0097ff"/>
</radialGradient>
</defs>
<path d="M1107.9766 2086.0078 C1107.9766 2277.8359 1263.4375 2433.3359 1455.2969 2433.3359 1647.1953 2433.3359 1802.6641 2277.8359 1802.6641 2086.0078 1802.6641 1894.1953 1647.1953 1738.6797 1455.3438 1738.6797 1263.4375 1738.6797 1107.9766 1894.1953 1107.9766 2086.0078 Z" stroke="#000000" stroke-width="26.4219" fill="url(#_Fill1)"/>
<path d="M1686.0859 2141.7578 1664.2734 2202.1719 1714.1016 2232.1641 1655.9297 2259.4922 1669.9375 2315.8906 1609.5234 2294.0781 1579.5234 2343.9219 1552.2031 2285.7344 1495.7969 2299.7344 1517.6172 2239.3281 1467.7734 2209.3203 1525.9766 2182.0078 1511.9531 2125.6094 1572.3672 2147.4141 1602.3594 2097.5781 1629.6875 2155.7656 1686.0859 2141.7578 Z" stroke="#ffffff" stroke-width="1.25" fill="#ffffff"/>
<path d="M1299.6328 2375.1563 1283.8047 2314.8203 1257.3516 2320.1094 1275.3359 2385.7344 1299.6328 2375.1563 Z" fill="#000000"/>
<path d="M1271.0703 2253.5 1265.7813 2192.1328 1241.4922 2193.1563 1246.7891 2257.6953 1271.0703 2253.5 Z" fill="#000000"/>
<path d="M1265.7813 2128.6563 1275.3359 2068.375 1248.8984 2063.0781 1241.4922 2127.5391 1265.7813 2128.6563 Z" fill="#000000"/>
<path d="M1290.1172 2007.0156 1314.4609 1951.9844 1291.2031 1941.4219 1265.8281 2000.5625 1290.1172 2007.0156 Z" fill="#000000"/>
<path d="M1344.1094 1895.9297 1380.0469 1847.2344 1358.8828 1830.3281 1321.9063 1883.125 1344.1094 1895.9297 Z" fill="#000000"/>
<path d="M1419.1719 1796.4531 1464.6875 1749.9297 1439.3125 1737.25 1400.1875 1780.4609 1419.1719 1796.4531 Z" fill="#000000"/>
<path d="M1147.3125 1947.7344 1200.2109 1925.5469 1193.8906 1903.3203 1148.3906 1917.0781 1147.3125 1947.7344 Z" fill="#000000"/>
<path d="M1260.5078 1912.8359 1323.9766 1908.6094 1322.9453 1882.1719 1257.3516 1888.5313 1260.5078 1912.8359 Z" fill="#000000"/>
<path d="M1386.4141 1907.5391 1448.8125 1913.8984 1451.9844 1888.5313 1387.4531 1882.1719 1386.4141 1907.5391 Z" fill="#000000"/>
<path d="M1510.1719 1923.3516 1570.4688 1938.2344 1577.8672 1912.8359 1515.4688 1898.0391 1510.1719 1923.3516 Z" fill="#000000"/>
<path d="M1630.8047 1958.2422 1686.8281 1983.7344 1697.4141 1961.5 1640.3125 1933.9766 1630.8047 1958.2422 Z" fill="#000000"/>
<path d="M1737.6641 2017.4063 1779.9375 2059.8906 1803.2109 2045.0625 1754.5313 1997.4531 1737.6641 2017.4063 Z" fill="#000000"/>
<path d="M2922.9844 1874.8516 C2922.9844 1783.5078 3003.1563 1743.4219 3155.9844 1781.6328 L3155.9844 1854.3359 C3098.2109 1843.1641 3066.5156 1856.2188 3066.5156 1922.3984 L3066.5156 2134.8906 3152.2578 2134.8906 3152.2578 2215.0625 3066.5156 2215.0625 C3066.5156 2260.7266 3068.375 2306.3984 3071.1797 2352.0703 L2919.25 2352.0703 C2921.1172 2306.3984 2922.9844 2260.7266 2922.9844 2215.0625 L2863.3359 2215.0625 2863.3359 2134.8906 2922.9844 2134.8906 2922.9844 1874.8516 Z" stroke="#ffffff" stroke-width="50" stroke-linejoin="round" fill="#ffffff"/>
<path d="M1949.4688 2262.5781 1949.4688 1996.9531 C1949.4688 1924.25 1948.5469 1852.4844 1944.8203 1779.7891 L2063.1875 1779.7891 C2059.4609 1835.7109 2057.5938 1891.6328 2057.5938 1947.5391 L2057.5938 2172.1719 2270.1094 1779.7891 2404.3281 1779.7891 C2403.3984 1800.2813 2401.5313 1815.2031 2401.5313 1834.7813 L2401.5313 2195.4766 C2401.5313 2264.4453 2405.2578 2332.5 2408.0313 2401.4688 L2287.8203 2401.4688 C2292.4766 2335.2891 2293.4141 2269.1172 2293.4141 2202.9297 L2293.4141 2054.7422 2096.7422 2401.4688 1944.8203 2401.4688 C1948.5469 2354.8672 1949.4688 2317.5938 1949.4688 2262.5781 Z" stroke="#ffffff" stroke-width="50" stroke-linejoin="round" fill="#ffffff"/>
<path d="M2788.2266 2174.9766 C2719.2422 2243.9531 2596.2188 2247.6641 2517.9141 2169.3906 2436.8359 2088.3047 2412.6094 1922.3984 2507.6797 1827.3203 2588.75 1746.2266 2741.6172 1749.9531 2839.5 1828.25 L2791.9375 1886.0469 C2732.3047 1838.4922 2668.9219 1843.1641 2641.8828 1870.1797 2624.1875 1887.9063 2611.1328 1915.8672 2607.3984 1944.75 L2839.5 2012.8047 C2846 2071.5078 2828.2969 2134.8906 2788.2266 2174.9766 Z M2599.0234 2020.2578 C2600.8828 2062.1953 2603.6797 2114.3828 2632.5703 2143.2891 2655.875 2166.5859 2699.6875 2158.1953 2699.6875 2076.1797 2699.6875 2033.2891 2629.7734 2028.6484 2599.0234 2020.2578 Z" stroke="#ffffff" stroke-width="50" stroke-linejoin="round" fill="#ffffff"/>
<path d="M3200.5781 1804.9375 C3383.2656 1718.2734 3635.8672 1764.8672 3635.8672 1964.3359 3635.8672 2159.1328 3364.6172 2164.7188 3364.6172 2259.8047 3364.6172 2334.3594 3495.1172 2350.2109 3591.1328 2260.7266 L3591.1328 2400.5391 C3432.6719 2446.2109 3208.0469 2398.6797 3208.0469 2216.9141 3208.0469 2037.9688 3474.6172 2042.625 3474.6172 1926.1172 3474.6172 1837.5625 3324.5547 1814.2656 3200.5781 1956.875 L3200.5781 1804.9375 Z" stroke="#ffffff" stroke-width="50" stroke-linejoin="round" fill="#ffffff"/>
<path d="M3825.7734 1935.4375 3825.7734 2103.2031 C3825.7734 2141.4219 3827.6328 2177.7734 3832.2813 2215.0625 L3673.8359 2215.0625 C3679.4297 2160.0625 3682.2188 2117.1875 3682.2188 2062.1953 L3682.2188 1896.2969 C3682.2188 1758.3438 3847.1953 1739.7109 3914.3125 1812.4063 L3919.9141 1779.7891 4060.6406 1779.7891 C4056.9141 1804.9375 4047.5938 1855.2656 4047.5938 1893.4844 L4047.5938 2081.7734 C4047.5938 2131.1719 4051.3203 2171.25 4055.0547 2215.0625 L3898.4844 2215.0625 C3902.1875 2180.5547 3904.0625 2161.9297 3904.0625 2118.1172 L3904.0625 1888.8359 C3888.2109 1857.1406 3825.7734 1842.2344 3825.7734 1935.4375 Z" stroke="#ffffff" stroke-width="50" stroke-linejoin="round" fill="#ffffff"/>
<path d="M4396.3516 2226.2266 C4333.8984 2226.2266 4282.6406 2202.0078 4255.6016 2143.2891 4254.6719 2173.0938 4253.7344 2185.2266 4248.1484 2215.0625 L4099.0234 2215.0625 C4114.8672 2134.8906 4118.5938 2107.8594 4118.5938 2026.7891 L4118.5938 1933.5781 C4118.5938 1886.0469 4114.8672 1825.4453 4111.1406 1779.7891 L4268.6484 1779.7891 C4263.0625 1823.5781 4262.1328 1830.1172 4262.1328 1873.9141 L4262.1328 1976.4531 C4262.1328 2072.4531 4305.9453 2129.3047 4396.3516 2115.3203 L4396.3516 2226.2266 Z" stroke="#ffffff" stroke-width="50" stroke-linejoin="round" fill="#ffffff"/>
<path d="M4645.7266 2305.4609 C4668.0859 2327.8281 4705.375 2325.0313 4741.7188 2299.8672 L4741.7188 2402.3984 C4677.4219 2421.9766 4586.0781 2404.2578 4542.2656 2360.4609 4508.7109 2326.8906 4500.3203 2299.8672 4500.3203 2215.0625 L4441.6016 2215.0625 4441.6016 2134.8906 4500.3203 2134.8906 4500.3203 2028.6484 C4500.3203 1945.6953 4497.5078 1862.7344 4491.0078 1779.7891 L4648.5156 1779.7891 C4644.7891 1817.9844 4643.8516 1862.7344 4643.8516 1904.6875 L4643.8516 2134.8906 4727.7344 2134.8906 4727.7344 2215.0625 4648.5156 2215.0625 C4629.8828 2241.1484 4623.3438 2283.0938 4645.7266 2305.4609 Z" stroke="#ffffff" stroke-width="50" stroke-linejoin="round" fill="#ffffff"/>
<defs>
<radialGradient id="_Fill2" gradientUnits="userSpaceOnUse" cx="3536.0234" cy="2005.5156" r="2982.2031" spreadMethod="pad">
<stop offset="0" stop-color="#2668ee"/>
<stop offset="1" stop-color="#b8f5ff"/>
</radialGradient>
</defs>
<path d="M1949.4688 2262.5781 1949.4688 1996.9531 C1949.4688 1924.25 1948.5469 1852.4844 1944.8203 1779.7891 L2063.1875 1779.7891 C2059.4609 1835.7109 2057.5938 1891.6328 2057.5938 1947.5391 L2057.5938 2172.1719 2270.1094 1779.7891 2404.3281 1779.7891 C2403.3984 1800.2813 2401.5313 1815.2031 2401.5313 1834.7813 L2401.5313 2195.4766 C2401.5313 2264.4453 2405.2578 2332.5 2408.0313 2401.4688 L2287.8203 2401.4688 C2292.4766 2335.2891 2293.4141 2269.1172 2293.4141 2202.9297 L2293.4141 2054.7422 2096.7422 2401.4688 1944.8203 2401.4688 C1948.5469 2354.8672 1949.4688 2317.5938 1949.4688 2262.5781 Z" fill="url(#_Fill2)"/>
<defs>
<radialGradient id="_Fill3" gradientUnits="userSpaceOnUse" cx="3536.0234" cy="2005.5156" r="2982.2031" spreadMethod="pad">
<stop offset="0" stop-color="#2668ee"/>
<stop offset="1" stop-color="#b8f5ff"/>
</radialGradient>
</defs>
<path d="M2788.2266 2174.9766 C2719.2422 2243.9531 2596.2188 2247.6641 2517.9141 2169.3906 2436.8359 2088.3047 2412.6094 1922.3984 2507.6797 1827.3203 2588.75 1746.2266 2741.6172 1749.9531 2839.5 1828.25 L2791.9375 1886.0469 C2732.3047 1838.4922 2668.9219 1843.1641 2641.8828 1870.1797 2624.1875 1887.9063 2611.1328 1915.8672 2607.3984 1944.75 L2839.5 2012.8047 C2846 2071.5078 2828.2969 2134.8906 2788.2266 2174.9766 Z M2599.0234 2020.2578 C2600.8828 2062.1953 2603.6797 2114.3828 2632.5703 2143.2891 2655.875 2166.5859 2699.6875 2158.1953 2699.6875 2076.1797 2699.6875 2033.2891 2629.7734 2028.6484 2599.0234 2020.2578 Z" fill="url(#_Fill3)"/>
<defs>
<radialGradient id="_Fill4" gradientUnits="userSpaceOnUse" cx="3536.0234" cy="2005.5156" r="2982.2031" spreadMethod="pad">
<stop offset="0" stop-color="#2668ee"/>
<stop offset="1" stop-color="#b8f5ff"/>
</radialGradient>
</defs>
<path d="M2922.9844 1874.8516 C2922.9844 1783.5078 3003.1563 1743.4219 3155.9844 1781.6328 L3155.9844 1854.3359 C3098.2109 1843.1641 3066.5156 1856.2188 3066.5156 1922.3984 L3066.5156 2134.8906 3152.2578 2134.8906 3152.2578 2215.0625 3066.5156 2215.0625 C3066.5156 2260.7266 3068.375 2306.3984 3071.1797 2352.0703 L2919.25 2352.0703 C2921.1172 2306.3984 2922.9844 2260.7266 2922.9844 2215.0625 L2863.3359 2215.0625 2863.3359 2134.8906 2922.9844 2134.8906 2922.9844 1874.8516 Z" fill="url(#_Fill4)"/>
<defs>
<radialGradient id="_Fill5" gradientUnits="userSpaceOnUse" cx="3536.0234" cy="2005.5156" r="2982.2031" spreadMethod="pad">
<stop offset="0" stop-color="#2668ee"/>
<stop offset="1" stop-color="#b8f5ff"/>
</radialGradient>
</defs>
<path d="M3200.5781 1804.9375 C3383.2656 1718.2734 3635.8672 1764.8672 3635.8672 1964.3359 3635.8672 2159.1328 3364.6172 2164.7188 3364.6172 2259.8047 3364.6172 2334.3594 3495.1172 2350.2109 3591.1328 2260.7266 L3591.1328 2400.5391 C3432.6719 2446.2109 3208.0469 2398.6797 3208.0469 2216.9141 3208.0469 2037.9688 3474.6172 2042.625 3474.6172 1926.1172 3474.6172 1837.5625 3324.5547 1814.2656 3200.5781 1956.875 L3200.5781 1804.9375 Z" fill="url(#_Fill5)"/>
<defs>
<radialGradient id="_Fill6" gradientUnits="userSpaceOnUse" cx="3536.0234" cy="2005.5156" r="2982.2031" spreadMethod="pad">
<stop offset="0" stop-color="#2668ee"/>
<stop offset="1" stop-color="#b8f5ff"/>
</radialGradient>
</defs>
<path d="M3825.7734 1935.4375 3825.7734 2103.2031 C3825.7734 2141.4219 3827.6328 2177.7734 3832.2813 2215.0625 L3673.8359 2215.0625 C3679.4297 2160.0625 3682.2188 2117.1875 3682.2188 2062.1953 L3682.2188 1896.2969 C3682.2188 1758.3438 3847.1953 1739.7109 3914.3125 1812.4063 L3919.9141 1779.7891 4060.6406 1779.7891 C4056.9141 1804.9375 4047.5938 1855.2656 4047.5938 1893.4844 L4047.5938 2081.7734 C4047.5938 2131.1719 4051.3203 2171.25 4055.0547 2215.0625 L3898.4844 2215.0625 C3902.1875 2180.5547 3904.0625 2161.9297 3904.0625 2118.1172 L3904.0625 1888.8359 C3888.2109 1857.1406 3825.7734 1842.2344 3825.7734 1935.4375 Z" fill="url(#_Fill6)"/>
<defs>
<radialGradient id="_Fill7" gradientUnits="userSpaceOnUse" cx="3536.0234" cy="2005.5156" r="2982.2031" spreadMethod="pad">
<stop offset="0" stop-color="#2668ee"/>
<stop offset="1" stop-color="#b8f5ff"/>
</radialGradient>
</defs>
<path d="M4396.3516 2226.2266 C4333.8984 2226.2266 4282.6406 2202.0078 4255.6016 2143.2891 4254.6719 2173.0938 4253.7344 2185.2266 4248.1484 2215.0625 L4099.0234 2215.0625 C4114.8672 2134.8906 4118.5938 2107.8594 4118.5938 2026.7891 L4118.5938 1933.5781 C4118.5938 1886.0469 4114.8672 1825.4453 4111.1406 1779.7891 L4268.6484 1779.7891 C4263.0625 1823.5781 4262.1328 1830.1172 4262.1328 1873.9141 L4262.1328 1976.4531 C4262.1328 2072.4531 4305.9453 2129.3047 4396.3516 2115.3203 L4396.3516 2226.2266 Z" fill="url(#_Fill7)"/>
<defs>
<radialGradient id="_Fill8" gradientUnits="userSpaceOnUse" cx="3536.0234" cy="2005.5156" r="2982.2031" spreadMethod="pad">
<stop offset="0" stop-color="#2668ee"/>
<stop offset="1" stop-color="#b8f5ff"/>
</radialGradient>
</defs>
<path d="M4645.7266 2305.4609 C4668.0859 2327.8281 4705.375 2325.0313 4741.7188 2299.8672 L4741.7188 2402.3984 C4677.4219 2421.9766 4586.0781 2404.2578 4542.2656 2360.4609 4508.7109 2326.8906 4500.3203 2299.8672 4500.3203 2215.0625 L4441.6016 2215.0625 4441.6016 2134.8906 4500.3203 2134.8906 4500.3203 2028.6484 C4500.3203 1945.6953 4497.5078 1862.7344 4491.0078 1779.7891 L4648.5156 1779.7891 C4644.7891 1817.9844 4643.8516 1862.7344 4643.8516 1904.6875 L4643.8516 2134.8906 4727.7344 2134.8906 4727.7344 2215.0625 4648.5156 2215.0625 C4629.8828 2241.1484 4623.3438 2283.0938 4645.7266 2305.4609 Z" fill="url(#_Fill8)"/>
<path d="M1949.4688 2262.5781 1949.4688 1996.9531 C1949.4688 1924.25 1948.5469 1852.4844 1944.8203 1779.7891 L2063.1875 1779.7891 C2059.4609 1835.7109 2057.5938 1891.6328 2057.5938 1947.5391 L2057.5938 2172.1719 2270.1094 1779.7891 2404.3281 1779.7891 C2403.3984 1800.2813 2401.5313 1815.2031 2401.5313 1834.7813 L2401.5313 2195.4766 C2401.5313 2264.4453 2405.2578 2332.5 2408.0313 2401.4688 L2287.8203 2401.4688 C2292.4766 2335.2891 2293.4141 2269.1172 2293.4141 2202.9297 L2293.4141 2054.7422 2096.7422 2401.4688 1944.8203 2401.4688 C1948.5469 2354.8672 1949.4688 2317.5938 1949.4688 2262.5781 Z" stroke="#2668ee" stroke-width="5" stroke-linejoin="miter" fill="none"/>
<path d="M2788.2266 2174.9766 C2719.2422 2243.9531 2596.2188 2247.6641 2517.9141 2169.3906 2436.8359 2088.3047 2412.6094 1922.3984 2507.6797 1827.3203 2588.75 1746.2266 2741.6172 1749.9531 2839.5 1828.25 L2791.9375 1886.0469 C2732.3047 1838.4922 2668.9219 1843.1641 2641.8828 1870.1797 2624.1875 1887.9063 2611.1328 1915.8672 2607.3984 1944.75 L2839.5 2012.8047 C2846 2071.5078 2828.2969 2134.8906 2788.2266 2174.9766 Z M2599.0234 2020.2578 C2600.8828 2062.1953 2603.6797 2114.3828 2632.5703 2143.2891 2655.875 2166.5859 2699.6875 2158.1953 2699.6875 2076.1797 2699.6875 2033.2891 2629.7734 2028.6484 2599.0234 2020.2578 Z" stroke="#2668ee" stroke-width="5" stroke-linejoin="miter" fill="none"/>
<path d="M2922.9844 1874.8516 C2922.9844 1783.5078 3003.1563 1743.4219 3155.9844 1781.6328 L3155.9844 1854.3359 C3098.2109 1843.1641 3066.5156 1856.2188 3066.5156 1922.3984 L3066.5156 2134.8906 3152.2578 2134.8906 3152.2578 2215.0625 3066.5156 2215.0625 C3066.5156 2260.7266 3068.375 2306.3984 3071.1797 2352.0703 L2919.25 2352.0703 C2921.1172 2306.3984 2922.9844 2260.7266 2922.9844 2215.0625 L2863.3359 2215.0625 2863.3359 2134.8906 2922.9844 2134.8906 2922.9844 1874.8516 Z" stroke="#2668ee" stroke-width="5" stroke-linejoin="miter" fill="none"/>
<path d="M3200.5781 1804.9375 C3383.2656 1718.2734 3635.8672 1764.8672 3635.8672 1964.3359 3635.8672 2159.1328 3364.6172 2164.7188 3364.6172 2259.8047 3364.6172 2334.3594 3495.1172 2350.2109 3591.1328 2260.7266 L3591.1328 2400.5391 C3432.6719 2446.2109 3208.0469 2398.6797 3208.0469 2216.9141 3208.0469 2037.9688 3474.6172 2042.625 3474.6172 1926.1172 3474.6172 1837.5625 3324.5547 1814.2656 3200.5781 1956.875 L3200.5781 1804.9375 Z" stroke="#2668ee" stroke-width="5" stroke-linejoin="miter" fill="none"/>
<path d="M3825.7734 1935.4375 3825.7734 2103.2031 C3825.7734 2141.4219 3827.6328 2177.7734 3832.2813 2215.0625 L3673.8359 2215.0625 C3679.4297 2160.0625 3682.2188 2117.1875 3682.2188 2062.1953 L3682.2188 1896.2969 C3682.2188 1758.3438 3847.1953 1739.7109 3914.3125 1812.4063 L3919.9141 1779.7891 4060.6406 1779.7891 C4056.9141 1804.9375 4047.5938 1855.2656 4047.5938 1893.4844 L4047.5938 2081.7734 C4047.5938 2131.1719 4051.3203 2171.25 4055.0547 2215.0625 L3898.4844 2215.0625 C3902.1875 2180.5547 3904.0625 2161.9297 3904.0625 2118.1172 L3904.0625 1888.8359 C3888.2109 1857.1406 3825.7734 1842.2344 3825.7734 1935.4375 Z" stroke="#2668ee" stroke-width="5" stroke-linejoin="miter" fill="none"/>
<path d="M4396.3516 2226.2266 C4333.8984 2226.2266 4282.6406 2202.0078 4255.6016 2143.2891 4254.6719 2173.0938 4253.7344 2185.2266 4248.1484 2215.0625 L4099.0234 2215.0625 C4114.8672 2134.8906 4118.5938 2107.8594 4118.5938 2026.7891 L4118.5938 1933.5781 C4118.5938 1886.0469 4114.8672 1825.4453 4111.1406 1779.7891 L4268.6484 1779.7891 C4263.0625 1823.5781 4262.1328 1830.1172 4262.1328 1873.9141 L4262.1328 1976.4531 C4262.1328 2072.4531 4305.9453 2129.3047 4396.3516 2115.3203 L4396.3516 2226.2266 Z" stroke="#2668ee" stroke-width="5" stroke-linejoin="miter" fill="none"/>
<path d="M4645.7266 2305.4609 C4668.0859 2327.8281 4705.375 2325.0313 4741.7188 2299.8672 L4741.7188 2402.3984 C4677.4219 2421.9766 4586.0781 2404.2578 4542.2656 2360.4609 4508.7109 2326.8906 4500.3203 2299.8672 4500.3203 2215.0625 L4441.6016 2215.0625 4441.6016 2134.8906 4500.3203 2134.8906 4500.3203 2028.6484 C4500.3203 1945.6953 4497.5078 1862.7344 4491.0078 1779.7891 L4648.5156 1779.7891 C4644.7891 1817.9844 4643.8516 1862.7344 4643.8516 1904.6875 L4643.8516 2134.8906 4727.7344 2134.8906 4727.7344 2215.0625 4648.5156 2215.0625 C4629.8828 2241.1484 4623.3438 2283.0938 4645.7266 2305.4609 Z" stroke="#2668ee" stroke-width="5" stroke-linejoin="miter" fill="none"/>
</g>
</g>
</svg>
