<?xml version="1.0" encoding="ISO-8859-1" standalone="yes"?>
<!DOCTYPE svg PUBLIC "-//W3C//DTD SVG 20010904//EN"
  "http://www.w3.org/TR/2001/REC-SVG-20010904/DTD/svg10.dtd">
<svg width="16.0002cm" height="16.0002cm" viewBox="283.4453 283.4453 2267.75 2267.75" version="1.0"
    xmlns="http://www.w3.org/2000/svg"
    xmlns:xlink="http://www.w3.org/1999/xlink">
<desc>
  Exported by the ArtWorks SVGExport module.
  Source document: ADFS::Pan.$.Public.Michael.NetSurf.SVN.trunk.art.throbber.ArtWorks.Throbber1
</desc>
<g transform="matrix(1 0 0 -1 0 2834.6406)" stroke-miterlimit="16" fill-rule="evenodd" clip-rule="evenodd" stroke-linejoin="bevel" stroke-linecap="butt">
<g>
<path d="M1084.1797 2313.0391 C1058.5 2465.2188 1230.0469 2552.7422 1417.3203 2551.1953 1604.5859 2552.7422 1776.1328 2465.2188 1750.4531 2313.0391 1720.1641 2161.3125 1559.4297 2052.6016 1417.3203 2054.5625 1275.2031 2052.6016 1114.4688 2161.3125 1084.1797 2313.0391 1084.1797 2313.0391 1084.1797 2313.0391 1084.1797 2313.0391 Z" fill="#000000"/>
<path d="M1750.4609 521.6016 C1776.1406 369.4219 1604.5938 281.8984 1417.3281 283.4453 1230.0547 281.8984 1058.5078 369.4219 1084.1875 521.6016 1114.4766 673.3281 1275.2109 782.0391 1417.3281 780.0781 1559.4375 782.0391 1720.1719 673.3281 1750.4609 521.6016 1750.4609 521.6016 1750.4609 521.6016 1750.4609 521.6016 Z" fill="#666666"/>
<path d="M1019.5469 548.3672 C930.1016 422.6016 746.9141 482.0156 615.5859 615.5313 482.0703 746.8516 422.6563 930.0391 548.4141 1019.4844 608.9844 1063.5391 693.9297 1074.3516 769.5078 1063.1641 846.0078 1051.5469 913.6797 1019.5781 966.75 966.6953 1019.6328 913.6328 1051.6016 845.9609 1063.2188 769.4609 1074.4141 693.875 1063.6016 608.9297 1019.5469 548.3672 1019.5469 548.3672 1019.5469 548.3672 1019.5469 548.3672 Z" fill="#4c4c4c"/>
<path d="M2286.2578 1019.5156 C2412.0234 930.0703 2352.6094 746.875 2219.0938 615.5469 2087.7656 482.0313 1904.5703 422.6172 1815.125 548.3828 1771.0703 608.9453 1760.2656 693.8906 1771.4531 769.4766 1783.0703 845.9766 1815.0391 913.6484 1867.9219 966.7188 1920.9922 1019.6016 1988.6641 1051.5703 2065.1641 1063.1875 2140.75 1074.375 2225.6953 1063.5703 2286.2578 1019.5156 2286.2578 1019.5156 2286.2578 1019.5156 2286.2578 1019.5156 Z" fill="#808080"/>
<path d="M2313.0391 1750.4609 C2465.2188 1776.1406 2552.7422 1604.5938 2551.1953 1417.3281 2552.7422 1230.0547 2465.2188 1058.5078 2313.0391 1084.1875 2161.3125 1114.4766 2052.6016 1275.2109 2054.5625 1417.3281 2052.6016 1559.4375 2161.3125 1720.1719 2313.0391 1750.4609 2313.0391 1750.4609 2313.0391 1750.4609 2313.0391 1750.4609 Z" fill="#999999"/>
<path d="M1815.1016 2286.2266 C1904.5469 2411.9844 2087.7422 2352.5703 2219.0625 2219.0547 2352.5781 2087.7266 2411.9844 1904.5391 2286.2266 1815.0938 2225.6563 1771.0391 2140.7109 1760.2266 2065.1328 1771.4219 1988.6328 1783.0391 1920.9609 1815.0078 1867.8906 1867.8906 1815.0078 1920.9609 1783.0391 1988.6328 1771.4219 2065.1328 1760.2344 2140.7109 1771.0469 2225.6563 1815.1016 2286.2266 1815.1016 2286.2266 1815.1016 2286.2266 1815.1016 2286.2266 Z" fill="#b3b3b3"/>
<path d="M521.6016 1084.1797 C369.4219 1058.5 281.8984 1230.0469 283.4453 1417.3203 281.8984 1604.5859 369.4219 1776.1328 521.6016 1750.4531 673.3281 1720.1641 782.0391 1559.4297 780.0781 1417.3203 782.0391 1275.2031 673.3281 1114.4688 521.6016 1084.1797 521.6016 1084.1797 521.6016 1084.1797 521.6016 1084.1797 Z" fill="#333333"/>
<path d="M548.3984 1815.0703 C422.6406 1904.5156 482.0547 2087.7031 615.5703 2219.0234 746.8906 2352.5391 930.0781 2411.9531 1019.5156 2286.1875 1063.5781 2225.6172 1074.3828 2140.6797 1063.1953 2065.1016 1051.5781 1988.6016 1019.6094 1920.9297 966.7266 1867.8594 913.6641 1814.9766 845.9922 1783.0078 769.4922 1771.3906 693.9141 1760.2031 608.9688 1771.0156 548.3984 1815.0703 548.3984 1815.0703 548.3984 1815.0703 548.3984 1815.0703 Z" fill="#191919"/>
</g>
</g>
</svg>
